<svg xmlns="http://www.w3.org/2000/svg" xmlns:xlink="http://www.w3.org/1999/xlink" xml:space="preserve" version="1.1" style="shape-rendering:geometricPrecision;text-rendering:geometricPrecision;image-rendering:optimizeQuality;" viewBox="0 0 254 397.5" x="0px" y="0px" fill-rule="evenodd" clip-rule="evenodd"><defs><style type="text/css">
   
    .fil0 {fill:black}
   
  </style></defs><g><path class="fil0" d="M142 109c-1,2 -2,3 -3,4 45,48 49,96 1,139 6,-11 16,-29 17,-42 -2,7 -14,18 -18,25 6,-13 12,-27 16,-41 -5,10 -14,20 -21,28 8,-14 14,-27 18,-41 -5,8 -12,15 -20,22 7,-12 12,-24 16,-37 -5,9 -11,16 -18,21 -6,48 -24,92 -55,131 -22,0 -45,0 -67,0 23,-8 43,-18 59,-31l12 0 -10 -1 1 -1 7 0 -6 -1c5,-5 10,-10 15,-15l10 0 -10 -1 2 -1 5 0 -5 -1c4,-4 7,-9 10,-14l11 0 -10 -1 0 -1 8 0 -7 -1c4,-7 8,-15 11,-24l7 0 -6 0 0 -2 4 0 -4 0c3,-8 5,-16 7,-24l6 0 -6 -1 0 -2 4 0 -4 0c4,-20 5,-42 3,-66 -1,0 -2,0 -2,0 -4,0 -6,-2 -6,-6 -3,0 -6,-2 -6,-5 0,-4 3,-6 6,-6l0 0c-1,-1 -1,-2 -1,-4l0 0c-12,8 -22,18 -29,32 1,-9 3,-17 7,-23 -8,8 -13,18 -18,31 2,-10 4,-19 6,-29 -9,10 -15,23 -20,36 0,-9 1,-19 5,-29 -7,11 -13,23 -18,36 0,-10 1,-20 4,-30 -8,12 -14,26 -20,40 2,-10 4,-23 8,-33 -8,11 -15,25 -21,38 2,-8 3,-24 7,-30 -9,9 -16,28 -21,40 2,-37 15,-62 40,-76 4,-7 8,-14 14,-20 -11,6 -21,14 -31,23 5,-7 12,-17 19,-22 -10,5 -21,12 -31,19 5,-4 12,-16 18,-19 -10,3 -24,14 -32,21 13,-22 29,-34 47,-38 6,-4 13,-8 20,-9 -10,0 -21,2 -31,4 5,-2 15,-8 20,-9 -9,-1 -23,3 -31,5 36,-25 68,-16 94,21 0,-2 1,-3 2,-4 -11,-42 2,-72 44,-84 -7,5 -19,14 -24,22 4,-4 15,-8 20,-11 -8,7 -17,14 -23,22 6,-5 15,-9 22,-12 -9,7 -18,13 -25,21 7,-4 13,-6 20,-8 -8,6 -15,12 -21,19 6,-4 13,-7 19,-9 -8,6 -16,13 -21,21 6,-3 12,-7 18,-10 -8,6 -14,12 -17,18 3,-4 8,-7 14,-9 -6,6 -10,11 -13,17 2,1 3,2 4,4 25,-34 56,-42 92,-18 -9,-2 -23,-6 -32,-5 5,1 15,7 20,9 -10,-2 -21,-4 -31,-4 7,1 14,5 21,9 18,4 33,16 46,38 -8,-7 -21,-18 -31,-21 5,3 12,15 17,19 -9,-7 -21,-14 -31,-19 7,5 14,15 19,22 -10,-9 -20,-17 -31,-23 6,6 11,13 15,20 24,14 38,39 39,76 -5,-12 -12,-31 -21,-40 4,6 5,22 7,30 -6,-13 -13,-27 -21,-38 5,10 6,23 8,33 -5,-14 -12,-28 -20,-40 3,10 4,20 4,30 -5,-13 -11,-25 -18,-36 4,10 5,20 5,29 -4,-13 -11,-26 -20,-36 2,10 4,19 6,29 -4,-13 -10,-23 -17,-31 3,6 6,14 6,23 -7,-14 -17,-24 -28,-32zm-12 77c7,-11 11,-23 14,-36l-12 14c0,8 -1,15 -2,22zm3 -27c2,-7 4,-13 4,-19 -1,3 -2,7 -4,10 0,3 0,6 0,9zm-13 -44l0 0c0,0 -1,0 -1,0l-1 0c1,1 1,1 1,2 1,-1 1,-1 1,-2zm-68 -40c8,-3 16,-4 24,-5 -3,2 -6,3 -8,4 -6,0 -11,0 -16,1zm28 1c2,0 4,0 5,0 -1,0 -2,1 -2,1l-3 -1zm16 6l0 0 0 0 0 0zm-5 18l-3 0c2,-1 3,-2 5,-2 -1,1 -2,1 -2,2zm-12 1c-4,0 -7,1 -11,1 5,-3 10,-5 16,-7l-5 6zm-19 4c-6,1 -11,3 -15,6 8,-7 16,-13 25,-17 -4,3 -8,7 -10,11zm99 -23l0 0 -1 0 1 0zm13 -5l2 -1c-2,0 -4,0 -5,0 1,0 2,1 3,1zm14 -3c6,0 11,0 17,1 -9,-3 -17,-4 -25,-5 3,2 6,3 8,4zm23 37c-8,-7 -16,-13 -25,-17 4,3 8,7 11,11 5,1 10,3 14,6zm-23 -9c-5,-3 -10,-5 -16,-7l6 6c3,0 7,1 10,1zm-20 -2c-2,-1 -3,-2 -5,-2 1,0 2,1 3,2l2 0z"/></g><text x="0" y="333" fill="#000000" font-size="5px" font-weight="bold" font-family="'Helvetica Neue', Helvetica, Arial-Unicode, Arial, Sans-serif">Created by ade</text><text x="0" y="338" fill="#000000" font-size="5px" font-weight="bold" font-family="'Helvetica Neue', Helvetica, Arial-Unicode, Arial, Sans-serif">from the Noun Project</text></svg>